<?xml version="1.0" encoding="iso-8859-1"?>
<!-- Generator: Adobe Illustrator 19.0.0, SVG Export Plug-In . SVG Version: 6.00 Build 0)  -->
<svg version="1.1" id="Capa_1" xmlns="http://www.w3.org/2000/svg" xmlns:xlink="http://www.w3.org/1999/xlink" x="0px" y="0px"
	 viewBox="0 0 512 512" style="enable-background:new 0 0 512 512;" xml:space="preserve">
<path style="fill:#BC6829;" d="M512,466v31c0,8.399-6.599,15-15,15H15c-8.401,0-15-6.601-15-15v-31c0-15.601,8.101-30,21.301-38.101
	C77.401,392.8,118.3,339.699,137.8,278.8l58.2,15.899l49.501-49.2C248.2,242.5,252.1,241,256,241s7.8,1.5,10.499,4.499l49.501,49.2
	l58.2-15.899c19.501,61.199,60.399,114,116.499,149.099C503.899,436,512,450.399,512,466z"/>
<path style="fill:#9E5015;" d="M512,466v31c0,8.399-6.599,15-15,15H256V241c3.9,0,7.8,1.5,10.499,4.499l49.501,49.2l58.2-15.899
	c19.501,61.199,60.399,114,116.499,149.099C503.899,436,512,450.399,512,466z"/>
<path style="fill:#FFA426;" d="M512,30c0,16.5-13.5,30-30,30h-31v15c0,24.901-20.099,45-45,45h-45c-16.5,0-30,13.5-30,30v61H181v-61
	c0-16.5-13.5-30-30-30h-45c-24.901,0-45-20.099-45-45V60H30C13.5,60,0,46.5,0,30S13.5,0,30,0h452C498.5,0,512,13.5,512,30z"/>
<path style="fill:#FF873C;" d="M512,30c0,16.5-13.5,30-30,30h-31v15c0,24.901-20.099,45-45,45h-45c-16.5,0-30,13.5-30,30v61h-75V0
	h226C498.5,0,512,13.5,512,30z"/>
<path style="fill:#9E5015;" d="M119.857,446.84c-5.977-5.728-6.196-15.22-0.469-21.211c15.908-16.626,30.073-34.937,42.114-54.404
	c4.365-7.031,13.594-9.243,20.654-4.863c7.046,4.365,9.214,13.608,4.863,20.654c-13.14,21.24-28.594,41.206-45.952,59.355
	C135.403,452.29,125.917,452.625,119.857,446.84z"/>
<path style="fill:#663300;" d="M370.902,446.371c-17.344-18.135-32.798-38.101-45.938-59.341
	c-4.351-7.046-2.183-16.289,4.863-20.654c7.046-4.351,16.304-2.183,20.654,4.863c12.041,19.468,26.206,37.764,42.1,54.39
	c5.728,5.991,5.508,15.483-0.469,21.211C386.038,452.64,376.554,452.276,370.902,446.371z"/>
<path style="fill:#FFDA45;" d="M271,135v60c0,8.399-6.599,16-15,16s-15-7.601-15-16v-60c0-24.901-20.099-45-45-45
	c-8.401,0-15-6.599-15-15s6.599-15,15-15c24.6,0,46.5,12.001,60,30.3C265.6,102.599,271,118.2,271,135z"/>
<path style="fill:#FFBC36;" d="M271,135v60c0,8.399-6.599,16-15,16V90.3C265.6,102.599,271,118.2,271,135z"/>
<path style="fill:#FF2121;" d="M374.2,278.8l-47.701,47.699C323.8,329.5,319.9,331,316,331s-7.8-1.5-10.499-4.501L256,277.299
	l-49.501,49.2c-5.7,6-15.298,6-20.999,0L137.8,278.8c8.699-27.601,13.2-60.101,13.2-83.8c0-8.401,6.599-15,15-15h180
	c8.401,0,15,6.599,15,15C361,218.699,365.501,251.199,374.2,278.8z"/>
<path style="fill:#B80000;" d="M374.2,278.8l-47.701,47.699C323.8,329.5,319.9,331,316,331s-7.8-1.5-10.499-4.501L256,277.299V180
	h90c8.401,0,15,6.599,15,15C361,218.699,365.501,251.199,374.2,278.8z"/>
<path style="fill:#9E5015;" d="M271,376v60c0,8.399-6.599,15-15,15s-15-6.601-15-15v-60c0-8.401,6.599-15,15-15S271,367.599,271,376
	z"/>
<path style="fill:#663300;" d="M271,376v60c0,8.399-6.599,15-15,15v-90C264.401,361,271,367.599,271,376z"/>
<g>
</g>
<g>
</g>
<g>
</g>
<g>
</g>
<g>
</g>
<g>
</g>
<g>
</g>
<g>
</g>
<g>
</g>
<g>
</g>
<g>
</g>
<g>
</g>
<g>
</g>
<g>
</g>
<g>
</g>
</svg>
